<?xml version="1.0" encoding="utf-8"?>
<!-- Generator: Adobe Illustrator 24.3.0, SVG Export Plug-In . SVG Version: 6.00 Build 0)  -->
<svg version="1.1" id="Calque_1" xmlns="http://www.w3.org/2000/svg" xmlns:xlink="http://www.w3.org/1999/xlink" x="0px" y="0px"
	 viewBox="0 0 32 32" style="enable-background:new 0 0 32 32;" xml:space="preserve">
<style type="text/css">
	.st0{fill:#E0E789;}
	.st1{fill:none;stroke:#0E423E;stroke-width:0.98;stroke-miterlimit:10;}
	.st2{fill:#0E423E;}
</style>
<path class="st0" d="M8.7,0H5.9c-1,0-2,0.4-2.7,1.1C2.4,1.9,2,2.8,2,3.9v24.3c0,1,0.4,2,1.1,2.7C3.9,31.6,4.8,32,5.9,32H30V0H8.7z"
	/>
<path class="st1" d="M7.7,32V0"/>
<path class="st2" d="M24.1,4.7h-9c-1.7,0-3,1.3-3,3v0.1c0,1.7,1.3,3,3,3h9c1.7,0,3-1.3,3-3V7.7C27.1,6.1,25.8,4.7,24.1,4.7z"/>
</svg>
