<?xml version="1.0" standalone="no"?>
<!DOCTYPE svg PUBLIC "-//W3C//DTD SVG 20010904//EN"
 "http://www.w3.org/TR/2001/REC-SVG-20010904/DTD/svg10.dtd">
<svg version="1.0" xmlns="http://www.w3.org/2000/svg"
 width="700.000000pt" height="700.000000pt" viewBox="0 0 700.000000 700.000000"
 preserveAspectRatio="xMidYMid meet">
<metadata>
Created by potrace 1.14, written by Peter Selinger 2001-2017
</metadata>
<g transform="translate(0.000000,700.000000) scale(0.100000,-0.100000)"
fill="#000000" stroke="none">
<path d="M477 5484 c-3 -5 -111 -9 -241 -8 l-236 1 1 -1111 c0 -868 4 -1129
14 -1191 7 -44 15 -93 18 -110 11 -65 50 -205 84 -295 112 -301 304 -578 549
-790 43 -37 176 -135 201 -148 12 -7 27 -18 35 -24 7 -7 27 -20 43 -28 17 -8
50 -26 75 -40 160 -91 460 -185 660 -205 166 -17 158 -20 163 55 2 25 6 51 10
56 3 6 4 14 0 18 -6 5 -5 58 0 146 1 14 7 28 12 32 6 5 5 8 -3 8 -7 0 -10 5
-7 11 4 6 9 146 11 312 3 165 9 306 14 312 6 7 5 16 -2 23 -8 8 -8 16 3 28 12
15 12 17 0 9 -9 -5 -12 -4 -7 3 4 7 9 67 12 134 6 161 9 192 17 205 4 7 3 14
-3 18 -6 4 -8 10 -5 15 3 4 5 35 6 69 1 55 3 60 18 49 15 -12 15 -11 0 7 -9
11 -15 29 -13 40 2 11 4 56 5 100 1 60 6 83 18 92 14 12 14 12 -1 7 -14 -5
-16 -1 -12 18 2 12 6 68 8 123 2 55 8 158 11 229 4 71 9 152 10 180 2 28 4 78
4 110 2 96 11 58 15 -60 12 -300 19 -450 22 -456 3 -4 0 -10 -6 -13 -7 -4 -8
-11 -2 -18 9 -12 13 -90 16 -284 0 -51 5 -93 10 -93 5 0 3 -6 -3 -14 -7 -8 -8
-17 -3 -20 8 -5 12 -159 12 -513 0 -87 2 -102 15 -97 12 5 15 -3 16 -37 2 -99
-2 -212 -7 -220 -3 -5 -1 -9 4 -9 6 0 7 -13 3 -32 -4 -18 -4 -45 0 -61 4 -15
4 -27 1 -27 -4 0 -6 -30 -4 -67 3 -84 4 -335 2 -348 -2 -6 -2 -20 -1 -32 1
-20 5 -21 49 -17 74 7 121 14 202 29 41 8 84 16 95 18 11 2 27 7 35 10 29 11
195 61 205 62 6 0 12 2 15 5 3 3 37 19 75 35 39 16 103 46 144 67 40 20 78 35
84 31 5 -3 7 -1 3 5 -3 6 18 24 51 43 32 18 60 35 63 39 3 3 18 13 33 23 l28
18 -1 -33 c-1 -18 -1 -81 0 -139 1 -58 0 -109 -1 -115 -1 -5 -1 -30 0 -55 l1
-46 895 0 895 0 -13 21 c-8 12 -32 50 -54 86 -38 63 -251 398 -298 470 -12 19
-62 98 -110 175 -89 141 -148 233 -213 335 -54 83 -133 240 -127 250 3 5 0 12
-6 15 -5 4 -8 14 -5 22 3 8 1 11 -4 8 -6 -3 -10 0 -11 7 0 7 -2 20 -4 28 -33
138 -47 360 -23 360 9 0 8 4 -2 11 -9 6 -11 12 -4 15 6 2 8 18 6 34 -2 17 0
30 4 30 5 0 9 10 10 23 1 12 3 31 6 42 19 76 32 116 39 121 5 3 9 14 9 25 0
13 4 18 12 13 6 -4 8 -3 5 3 -8 12 56 138 83 163 3 3 18 24 34 47 35 52 160
172 218 210 24 15 45 30 48 33 22 24 300 140 300 125 0 -2 14 0 30 5 93 27
267 29 391 6 213 -40 380 -128 535 -281 155 -154 251 -338 289 -554 17 -94 16
-267 -2 -341 -7 -30 -15 -67 -18 -82 -20 -105 -109 -263 -420 -743 -151 -234
-423 -667 -424 -676 -1 -3 406 -6 904 -6 l905 0 -1 1126 c-1 1016 -4 1189 -23
1299 -20 111 -20 113 -40 187 -8 33 -27 92 -42 130 -14 39 -30 83 -36 98 -20
54 -111 222 -161 297 -138 208 -297 368 -503 506 -208 139 -411 223 -679 280
-27 6 -76 13 -160 23 -73 8 -577 6 -630 -3 -16 -2 -61 -10 -100 -16 -148 -23
-367 -92 -467 -146 -27 -14 -53 -22 -60 -18 -6 4 -8 3 -5 -2 3 -5 -25 -25 -61
-44 -37 -19 -69 -37 -72 -40 -3 -3 -17 -13 -31 -22 l-26 -16 1 163 c1 91 -3
161 -8 158 -14 -9 -276 -9 -276 0 0 5 -5 5 -11 1 -16 -10 -309 -11 -309 -1 0
5 -5 5 -11 1 -16 -10 -309 -11 -309 -1 0 5 -5 5 -11 1 -15 -9 -309 -11 -309
-2 0 4 -10 4 -22 0 -29 -9 -161 -8 -176 2 -7 4 -12 4 -12 -1 0 -9 -922 -9
-937 0 -6 4 -13 4 -16 0 -9 -8 -198 -9 -203 -1 -3 4 -15 4 -27 0 -26 -9 -69
-8 -86 2 -6 4 -11 4 -11 -1 0 -9 -370 -9 -394 0 -9 4 -16 3 -16 -1 0 -10 -264
-9 -271 2 -4 4 -9 4 -12 0z m1480 -1466 c-3 -7 -5 -2 -5 12 0 14 2 19 5 13 2
-7 2 -19 0 -25z"/>
<path d="M4036 5287 c3 -10 9 -15 12 -12 3 3 0 11 -7 18 -10 9 -11 8 -5 -6z"/>
<path d="M4974 3620 c-104 -22 -210 -104 -254 -198 -38 -79 -46 -158 -27 -238
69 -279 407 -377 613 -178 143 140 144 368 2 513 -81 83 -221 125 -334 101z"/>
<path d="M1989 2163 c-13 -16 -12 -17 4 -4 9 7 17 15 17 17 0 8 -8 3 -21 -13z"/>
<path d="M3020 1766 c0 -2 8 -10 18 -17 15 -13 16 -12 3 4 -13 16 -21 21 -21
13z"/>
<path d="M2867 1599 c7 -7 15 -10 18 -7 3 3 -2 9 -12 12 -14 6 -15 5 -6 -5z"/>
</g>
</svg>
