<svg id="Calque_1" data-name="Calque 1" xmlns="http://www.w3.org/2000/svg" viewBox="0 0 24 24"><path class="cls-1" d="M23.56,11.32,12.58.24a.82.82,0,0,0-1.16,0L.44,11.32A1.69,1.69,0,0,0,0,12.39V23.18A.82.82,0,0,0,.82,24H8.59a.83.83,0,0,0,.58-.24.8.8,0,0,0,.24-.58V15.34a.17.17,0,0,1,0-.12.14.14,0,0,1,.11,0h4.87a.16.16,0,0,1,.16.16v7.85a.82.82,0,0,0,.82.82h7.77a.83.83,0,0,0,.58-.24.8.8,0,0,0,.24-.58V12.39A1.69,1.69,0,0,0,23.56,11.32Zm-15.82,11H1.67V12.46L12,2,22.33,12.46v9.86H16.27v-7a1.84,1.84,0,0,0-1.83-1.84H9.56a1.86,1.86,0,0,0-1.83,1.85Z"/></svg>