<svg id="Calque_1" data-name="Calque 1" xmlns="http://www.w3.org/2000/svg" viewBox="0 0 24 24"><path class="cls-1" d="M22.56,5.67a6.31,6.31,0,0,1-3.49,5.4c-1-1.68-.37-8-.47-8-.4-.05-1.07,6.7-.37,8.1a6.38,6.38,0,0,1-3.64-5.49,6.46,6.46,0,0,1,4-5.67A6.45,6.45,0,0,1,22.56,5.67Z"/><path class="cls-2" d="M9.15,1.75l0,7.77-7.48,0V1.75H9.15m0-1.69H1.68A1.68,1.68,0,0,0,0,1.73V9.54a1.68,1.68,0,0,0,1.68,1.67H9.17a1.68,1.68,0,0,0,1.68-1.67V1.73A1.68,1.68,0,0,0,9.17.06Z"/><path class="cls-2" d="M9.15,14.54l0,7.77H1.69V14.54H9.15m0-1.7H1.68A1.68,1.68,0,0,0,0,14.52v7.8A1.68,1.68,0,0,0,1.68,24H9.17a1.68,1.68,0,0,0,1.68-1.68v-7.8a1.68,1.68,0,0,0-1.68-1.68Z"/><path class="cls-2" d="M22.31,14.54v7.77H14.85l0-7.78h7.48m0-1.7H14.83a1.68,1.68,0,0,0-1.68,1.68v7.8A1.68,1.68,0,0,0,14.83,24h7.49A1.68,1.68,0,0,0,24,22.32v-7.8a1.68,1.68,0,0,0-1.68-1.68Z"/></svg>