<svg id="Calque_1" data-name="Calque 1" xmlns="http://www.w3.org/2000/svg" viewBox="0 0 24 24"><path class="cls-1" d="M12,1.7a6.78,6.78,0,0,1,6.8,6.74,6.63,6.63,0,0,1-1.16,3.76v0l0,0-5.61,9-5.61-9,0,0v0A6.63,6.63,0,0,1,5.2,8.44,6.78,6.78,0,0,1,12,1.7M12,0A8.47,8.47,0,0,0,3.5,8.44,8.34,8.34,0,0,0,5,13.16l6.59,10.53a.5.5,0,0,0,.92,0l6.59-10.53A8.34,8.34,0,0,0,20.5,8.44,8.47,8.47,0,0,0,12,0Z"/><path class="cls-1" d="M15.71,8.82a5.9,5.9,0,0,1-3.25,5c-1-1.57-.34-7.48-.44-7.5-.37,0-1,6.27-.34,7.58A5.94,5.94,0,0,1,8.29,8.82,6,6,0,0,1,12,3.51,6,6,0,0,1,15.71,8.82Z"/></svg>