<svg xmlns="http://www.w3.org/2000/svg" viewBox="0 0 24 24"><path class="cls-1" d="M7.8.19A6,6,0,0,0,5.44.09h0A7.09,7.09,0,0,0,0,7.17a57.88,57.88,0,0,0,.66,6.54.88.88,0,0,0,.62.31c.14,0,1.26,0,2.66,0H6.6c1.8,0,2.71,0,3.18-.07s.72-.32.75-.72a.37.37,0,0,0,0-.11c.25-2,.49-3.47.9-5.4a7.06,7.06,0,0,0,.13-3.09A5.73,5.73,0,0,0,7.8.19ZM9.85,7.52c-.33,1.54-.76,4.05-.85,5-.52,0-1.94,0-3.47,0L2,12.49l-.2-2A17.45,17.45,0,0,1,1.71,6,5.84,5.84,0,0,1,4,2.38,4.18,4.18,0,0,1,7,1.59,4.06,4.06,0,0,1,10,4.81,6,6,0,0,1,9.85,7.52Z" transform="translate(0 0)"/><path class="cls-1" d="M23.93,5.77A7.33,7.33,0,0,0,20.61.86a5.79,5.79,0,0,0-4-.77h0A5.27,5.27,0,0,0,13.1,2.87a6.87,6.87,0,0,0-.43,5.21c.32,1.43.6,3.09.84,5.06a.88.88,0,0,0,.34.72c.26.19.26.19,4.71.19H23l.26-.25a.73.73,0,0,0,.27-.49c0-.06.05-.57.24-2.65A18.49,18.49,0,0,0,23.93,5.77Zm-1.72,4.7-.2,2-3.48,0c-1.76,0-3,0-3.47,0-.09-.86-.51-3.23-.83-4.83A6,6,0,0,1,14,5.59a4,4,0,0,1,.57-2,3.13,3.13,0,0,1,.78-1A3.69,3.69,0,0,1,17,1.57a4.31,4.31,0,0,1,1.75.15h0a5.51,5.51,0,0,1,3.6,4.45A20.42,20.42,0,0,1,22.21,10.47Z" transform="translate(0 0)"/><path class="cls-1" d="M1.19,15.55l-.25.24c-.27.24-.26.42-.22,1.07.21,2.9.4,3.75,1,4.8A4.48,4.48,0,0,0,5.57,24a4.31,4.31,0,0,0,1.85-.43,5,5,0,0,0,2.29-2.44,7,7,0,0,0,.61-3.3l.09-1.75-.51-.53Zm7.55,1.62,0,.32a11.17,11.17,0,0,1-.19,2.18,3.86,3.86,0,0,1-1.8,2.43,2.47,2.47,0,0,1-3-.56,4.37,4.37,0,0,1-1.24-3.21c0-.34-.06-.67-.09-.92,0-.09,0-.17,0-.24Z" transform="translate(0 0)"/><path class="cls-1" d="M23.05,15.75c-.27-.22-.27-.22-4.55-.22H14.2l-.55.55,0,1.43c0,.69.07,1.53.11,1.86a5.72,5.72,0,0,0,1.57,3.28A4.35,4.35,0,0,0,18.45,24a4.14,4.14,0,0,0,.7-.06,4.79,4.79,0,0,0,3.45-2.87,7.8,7.8,0,0,0,.62-3C23.41,16.11,23.42,16,23.05,15.75Zm-1.39,1.4c0,.18,0,.7-.1,1.28a4.46,4.46,0,0,1-1.3,3.18,2.76,2.76,0,0,1-1.46.74,2.47,2.47,0,0,1-1.95-.56,4.21,4.21,0,0,1-1.46-3.06c0-.38-.05-1-.06-1.29l0-.29Z" transform="translate(0 0)"/></svg>