<svg id="Calque_1" data-name="Calque 1" xmlns="http://www.w3.org/2000/svg" viewBox="0 0 24 24"><path d="M12,1.7A3.46,3.46,0,0,1,15.63,5,3.47,3.47,0,0,1,12,8.22,3.47,3.47,0,0,1,8.37,5,3.46,3.46,0,0,1,12,1.7M12,0A5.16,5.16,0,0,0,6.67,5a5.16,5.16,0,0,0,5.33,5A5.16,5.16,0,0,0,17.33,5,5.16,5.16,0,0,0,12,0Z" transform="translate(-0.01 0)"/><path d="M12,13.79a10.29,10.29,0,0,1,10.16,8.52H1.84A10.29,10.29,0,0,1,12,13.79m0-1.68A11.94,11.94,0,0,0,0,24H24A11.94,11.94,0,0,0,12,12.11Z" transform="translate(-0.01 0)"/></svg>