<?xml version="1.0" encoding="utf-8"?>
<!-- Generator: Adobe Illustrator 24.3.0, SVG Export Plug-In . SVG Version: 6.00 Build 0)  -->
<svg version="1.1" id="Calque_1" xmlns="http://www.w3.org/2000/svg" xmlns:xlink="http://www.w3.org/1999/xlink" x="0px" y="0px"
	 viewBox="0 0 32 32" style="enable-background:new 0 0 32 32;" xml:space="preserve">
<style type="text/css">
	.st0{fill:#E0E789;}
	.st1{fill:#0E423E;}
</style>
<path class="st0" d="M24.6,8.9c0,0,0,0,0-0.1c-0.1-2.3-1.1-4.6-2.8-6.2c-1.7-1.6-4-2.5-6.3-2.5c-2.3,0-4.6,0.9-6.3,2.5
	S6.3,6.3,6.2,8.7C4.3,9.6,2.9,11.1,2,13c-0.9,1.9-1.1,4-0.6,6c0.5,2,1.6,3.8,3.3,5.1c1.6,1.3,3.6,2,5.7,1.9c1.1,0,2.2-0.2,3.2-0.6
	V32h3.7v-6.4c2.2,0.8,4.6,0.8,6.8-0.1c2.2-0.9,3.9-2.6,4.8-4.8c0.9-2.1,1-4.6,0.2-6.8C28.3,11.8,26.7,10,24.6,8.9z"/>
<path class="st1" d="M28.5,13c0.8-0.7,1.4-1.5,1.8-2.5c0.4-0.9,0.6-2,0.6-3c0-1.2-0.3-2.4-0.8-3.5c-0.5-1.1-1.3-2-2.3-2.7
	c-1-0.7-2.1-1.1-3.3-1.3c-1.2-0.2-2.4,0-3.5,0.4c-1.1,0.4-2.1,1.1-3,2c-0.8,0.9-1.4,2-1.7,3.1c-0.3,1.2-0.3,2.4-0.1,3.6
	c0.3,1.2,0.8,2.3,1.6,3.2l-2.1,6.3c0,0,0,0.1,0,0.1c0,0,0,0.1,0.1,0.1c0,0,0.1,0.1,0.1,0.1s0.1,0,0.1,0l2.5-1.1c0.1,0,0.1,0,0.2,0
	c0.1,0,0.1,0.1,0.1,0.1l1.3,2.3c0,0.1,0,0.1,0.1,0.1c0,0,0.1,0,0.1,0c0.1,0,0.1,0,0.1,0c0,0,0.1-0.1,0.1-0.1l1.8-5.4
	c0.4,0.1,0.7,0.1,1.1,0.1h0.1l1.7,5.3c0,0,0.1,0.1,0.1,0.1c0,0,0.1,0,0.1,0c0,0,0.1,0,0.1,0c0,0,0.1-0.1,0.1-0.1l1.3-2.3
	c0-0.1,0.1-0.1,0.1-0.1c0.1,0,0.1,0,0.2,0l2.5,1.1c0,0,0.1,0,0.1,0c0.1,0,0.1,0,0.1-0.1c0,0,0.1-0.1,0.1-0.1c0,0,0-0.1,0-0.2
	L28.5,13z"/>
<path class="st0" d="M23.9,9.8l3,1.5l-0.6-3.1L28.7,6l-3.3-0.5l-1.5-2.8l-1.5,2.8L19.1,6l2.4,2.2L21,11.3L23.9,9.8z"/>
</svg>
