<svg id="Calque_1" data-name="Calque 1" xmlns="http://www.w3.org/2000/svg" viewBox="0 0 24 24"><defs><style>.cls-1{fill:#0e423e;}.cls-2{fill:#dfe58a;}</style></defs><path class="cls-1" d="M20.5,8.44a8.5,8.5,0,0,0-17,0A8.34,8.34,0,0,0,5,13.16l6.59,10.53a.5.5,0,0,0,.92,0l6.59-10.53A8.34,8.34,0,0,0,20.5,8.44Z"/><ellipse class="cls-2" cx="12" cy="8" rx="5.93" ry="5.89"/><path class="cls-1" d="M14.7,6.21v0a2.64,2.64,0,0,0-5.28,0A2.62,2.62,0,0,0,8,8.47a2.64,2.64,0,0,0,2.65,2.63,2.77,2.77,0,0,0,.91-.17v1.9h1.06V11A2.61,2.61,0,0,0,14.7,6.21Z"/></svg>