<?xml version="1.0" standalone="no" ?>
<!DOCTYPE svg PUBLIC "-//W3C//DTD SVG 1.1//EN" "http://www.w3.org/Graphics/SVG/1.1/DTD/svg11.dtd">
<svg width="896" height="45" viewBox="0 0 896 45" version="1.1" xmlns="http://www.w3.org/2000/svg">
	<desc>*01010101 00101110 01001110*</desc>
	<g id="bars" fill="#000000" stroke="none">
		<rect x="0" y="0" width="2" height="45" />
		<rect x="8" y="0" width="2" height="45" />
		<rect x="12" y="0" width="6" height="45" />
		<rect x="20" y="0" width="6" height="45" />
		<rect x="28" y="0" width="2" height="45" />
		<rect x="32" y="0" width="2" height="45" />
		<rect x="36" y="0" width="2" height="45" />
		<rect x="44" y="0" width="6" height="45" />
		<rect x="52" y="0" width="6" height="45" />
		<rect x="60" y="0" width="2" height="45" />
		<rect x="64" y="0" width="6" height="45" />
		<rect x="72" y="0" width="2" height="45" />
		<rect x="80" y="0" width="2" height="45" />
		<rect x="84" y="0" width="2" height="45" />
		<rect x="88" y="0" width="6" height="45" />
		<rect x="96" y="0" width="2" height="45" />
		<rect x="100" y="0" width="2" height="45" />
		<rect x="108" y="0" width="6" height="45" />
		<rect x="116" y="0" width="6" height="45" />
		<rect x="124" y="0" width="2" height="45" />
		<rect x="128" y="0" width="6" height="45" />
		<rect x="136" y="0" width="2" height="45" />
		<rect x="144" y="0" width="2" height="45" />
		<rect x="148" y="0" width="2" height="45" />
		<rect x="152" y="0" width="6" height="45" />
		<rect x="160" y="0" width="2" height="45" />
		<rect x="164" y="0" width="2" height="45" />
		<rect x="172" y="0" width="6" height="45" />
		<rect x="180" y="0" width="6" height="45" />
		<rect x="188" y="0" width="2" height="45" />
		<rect x="192" y="0" width="6" height="45" />
		<rect x="200" y="0" width="2" height="45" />
		<rect x="208" y="0" width="2" height="45" />
		<rect x="212" y="0" width="2" height="45" />
		<rect x="216" y="0" width="6" height="45" />
		<rect x="224" y="0" width="2" height="45" />
		<rect x="228" y="0" width="2" height="45" />
		<rect x="236" y="0" width="6" height="45" />
		<rect x="244" y="0" width="6" height="45" />
		<rect x="252" y="0" width="2" height="45" />
		<rect x="256" y="0" width="6" height="45" />
		<rect x="264" y="0" width="2" height="45" />
		<rect x="272" y="0" width="2" height="45" />
		<rect x="276" y="0" width="2" height="45" />
		<rect x="280" y="0" width="6" height="45" />
		<rect x="288" y="0" width="2" height="45" />
		<rect x="296" y="0" width="6" height="45" />
		<rect x="304" y="0" width="2" height="45" />
		<rect x="308" y="0" width="6" height="45" />
		<rect x="316" y="0" width="2" height="45" />
		<rect x="320" y="0" width="2" height="45" />
		<rect x="324" y="0" width="2" height="45" />
		<rect x="332" y="0" width="6" height="45" />
		<rect x="340" y="0" width="6" height="45" />
		<rect x="348" y="0" width="2" height="45" />
		<rect x="352" y="0" width="2" height="45" />
		<rect x="356" y="0" width="2" height="45" />
		<rect x="364" y="0" width="6" height="45" />
		<rect x="372" y="0" width="6" height="45" />
		<rect x="380" y="0" width="2" height="45" />
		<rect x="384" y="0" width="6" height="45" />
		<rect x="392" y="0" width="2" height="45" />
		<rect x="400" y="0" width="2" height="45" />
		<rect x="404" y="0" width="2" height="45" />
		<rect x="408" y="0" width="6" height="45" />
		<rect x="416" y="0" width="2" height="45" />
		<rect x="420" y="0" width="2" height="45" />
		<rect x="428" y="0" width="6" height="45" />
		<rect x="436" y="0" width="6" height="45" />
		<rect x="444" y="0" width="2" height="45" />
		<rect x="448" y="0" width="6" height="45" />
		<rect x="456" y="0" width="2" height="45" />
		<rect x="464" y="0" width="2" height="45" />
		<rect x="468" y="0" width="2" height="45" />
		<rect x="472" y="0" width="6" height="45" />
		<rect x="480" y="0" width="6" height="45" />
		<rect x="488" y="0" width="2" height="45" />
		<rect x="496" y="0" width="2" height="45" />
		<rect x="500" y="0" width="2" height="45" />
		<rect x="504" y="0" width="6" height="45" />
		<rect x="512" y="0" width="6" height="45" />
		<rect x="520" y="0" width="2" height="45" />
		<rect x="528" y="0" width="2" height="45" />
		<rect x="532" y="0" width="2" height="45" />
		<rect x="536" y="0" width="6" height="45" />
		<rect x="544" y="0" width="2" height="45" />
		<rect x="548" y="0" width="2" height="45" />
		<rect x="556" y="0" width="6" height="45" />
		<rect x="564" y="0" width="6" height="45" />
		<rect x="572" y="0" width="2" height="45" />
		<rect x="576" y="0" width="2" height="45" />
		<rect x="584" y="0" width="6" height="45" />
		<rect x="592" y="0" width="2" height="45" />
		<rect x="596" y="0" width="6" height="45" />
		<rect x="604" y="0" width="2" height="45" />
		<rect x="608" y="0" width="2" height="45" />
		<rect x="612" y="0" width="2" height="45" />
		<rect x="620" y="0" width="6" height="45" />
		<rect x="628" y="0" width="6" height="45" />
		<rect x="636" y="0" width="2" height="45" />
		<rect x="640" y="0" width="6" height="45" />
		<rect x="648" y="0" width="2" height="45" />
		<rect x="656" y="0" width="2" height="45" />
		<rect x="660" y="0" width="2" height="45" />
		<rect x="664" y="0" width="6" height="45" />
		<rect x="672" y="0" width="2" height="45" />
		<rect x="676" y="0" width="2" height="45" />
		<rect x="684" y="0" width="6" height="45" />
		<rect x="692" y="0" width="6" height="45" />
		<rect x="700" y="0" width="2" height="45" />
		<rect x="704" y="0" width="2" height="45" />
		<rect x="708" y="0" width="2" height="45" />
		<rect x="716" y="0" width="6" height="45" />
		<rect x="724" y="0" width="6" height="45" />
		<rect x="732" y="0" width="2" height="45" />
		<rect x="736" y="0" width="6" height="45" />
		<rect x="744" y="0" width="2" height="45" />
		<rect x="752" y="0" width="2" height="45" />
		<rect x="756" y="0" width="2" height="45" />
		<rect x="760" y="0" width="6" height="45" />
		<rect x="768" y="0" width="6" height="45" />
		<rect x="776" y="0" width="2" height="45" />
		<rect x="784" y="0" width="2" height="45" />
		<rect x="788" y="0" width="2" height="45" />
		<rect x="792" y="0" width="6" height="45" />
		<rect x="800" y="0" width="6" height="45" />
		<rect x="808" y="0" width="2" height="45" />
		<rect x="816" y="0" width="2" height="45" />
		<rect x="820" y="0" width="2" height="45" />
		<rect x="824" y="0" width="6" height="45" />
		<rect x="832" y="0" width="2" height="45" />
		<rect x="836" y="0" width="2" height="45" />
		<rect x="844" y="0" width="6" height="45" />
		<rect x="852" y="0" width="6" height="45" />
		<rect x="860" y="0" width="2" height="45" />
		<rect x="864" y="0" width="2" height="45" />
		<rect x="872" y="0" width="2" height="45" />
		<rect x="876" y="0" width="6" height="45" />
		<rect x="884" y="0" width="6" height="45" />
		<rect x="892" y="0" width="2" height="45" />
	</g>
</svg>
