<?xml version="1.0" encoding="utf-8"?>
<!-- Generator: Adobe Illustrator 24.3.0, SVG Export Plug-In . SVG Version: 6.00 Build 0)  -->
<svg version="1.1" id="Calque_1" xmlns="http://www.w3.org/2000/svg" xmlns:xlink="http://www.w3.org/1999/xlink" x="0px" y="0px"
	 viewBox="0 0 32 32" style="enable-background:new 0 0 32 32;" xml:space="preserve">
<style type="text/css">
	.st0{fill:#0E423E;}
	.st1{fill:#FFFFFF;}
</style>
<path class="st0" d="M14.5,26.6h1.2v2.9h2v-2.9h7.2v2.9h2.5v-2.9H29v-3.2H14.5V26.6z"/>
<path class="st0" d="M29,19.1H14.5v3.2H29V19.1z"/>
<path class="st1" d="M27.8,11c2.3,0,4.2-1.9,4.2-4.2s-1.9-4.2-4.2-4.2c-2.3,0-4.2,1.9-4.2,4.2S25.5,11,27.8,11z"/>
<path class="st0" d="M18.2,11.2c0,0,0,0,0-0.1c0-1.9-0.8-3.7-2.1-5C14.7,4.7,12.9,4,11,4C9.1,4,7.3,4.7,6,6.1
	c-1.3,1.3-2.1,3.2-2.1,5c-1.4,0.7-2.6,1.9-3.2,3.4C0,16-0.2,17.6,0.2,19.2c0.4,1.6,1.3,3,2.5,4c1.3,1,2.8,1.6,4.4,1.6
	c0.8,0,1.7-0.2,2.5-0.5v5.2h2.9v-5.1c0.7,0.2,1.4,0.4,2.1,0.4c1.6,0,3.1-0.6,4.4-1.5c1.2-1,2.1-2.3,2.5-3.9c0.4-1.5,0.3-3.1-0.3-4.6
	C20.6,13.3,19.5,12.1,18.2,11.2L18.2,11.2z"/>
</svg>
