<?xml version="1.0" encoding="utf-8"?>
<!-- Generator: Adobe Illustrator 24.3.0, SVG Export Plug-In . SVG Version: 6.00 Build 0)  -->
<svg version="1.1" id="Calque_1" xmlns="http://www.w3.org/2000/svg" xmlns:xlink="http://www.w3.org/1999/xlink" x="0px" y="0px"
	 viewBox="0 0 32 32" style="enable-background:new 0 0 32 32;" xml:space="preserve">
<style type="text/css">
	.st0{fill:#E0E789;}
</style>
<path class="st0" d="M25.1,9.2c0,0,0,0,0-0.1c0-2.4-1-4.7-2.6-6.4C20.8,1,18.5,0,16.1,0s-4.7,1-6.4,2.6C8,4.3,7.1,6.6,7.1,9
	c-1.8,0.9-3.2,2.4-4,4.3c-0.8,1.8-1,3.9-0.5,5.8C3,21.1,4.1,22.8,5.7,24c1.6,1.2,3.5,1.9,5.5,2c1.1,0,2.1-0.2,3.1-0.5V32h3.6v-6.5
	c2.1,0.7,4.4,0.6,6.4-0.4c2-0.9,3.6-2.5,4.5-4.6c0.9-2,1-4.3,0.3-6.4C28.5,12,27.1,10.2,25.1,9.2L25.1,9.2z"/>
</svg>
