<?xml version="1.0" encoding="utf-8"?>
<!-- Generator: Adobe Illustrator 24.3.0, SVG Export Plug-In . SVG Version: 6.00 Build 0)  -->
<svg version="1.1" id="Calque_1" xmlns="http://www.w3.org/2000/svg" xmlns:xlink="http://www.w3.org/1999/xlink" x="0px" y="0px"
	 viewBox="0 0 32 32" style="enable-background:new 0 0 32 32;" xml:space="preserve">
<style type="text/css">
	.st0{fill:#E0E789;}
	.st1{fill:#0E423E;}
	.st2{fill:none;stroke:#0E423E;stroke-width:1.17;stroke-miterlimit:10;}
</style>
<path class="st0" d="M28,0v32H4V7.1h7.5V0H28z"/>
<path class="st1" d="M11.5,7.1H4L11.5,0V7.1z"/>
<path class="st1" d="M22.5,12.9L18.1,9L22,5.1L26.4,9L22.5,12.9z"/>
<path class="st1" d="M18.5,13.1l-2,2l5.6-1.8l-4.4-3.8l-1.5,5.4l2-2c-0.1-0.1-0.1-0.2-0.1-0.4s0-0.3,0.1-0.4
	c0.1-0.1,0.3-0.2,0.5-0.2c0.2,0,0.3,0.1,0.5,0.2c0.1,0.1,0.1,0.1,0.2,0.2c0,0.1,0.1,0.2,0.1,0.2c0,0.1,0,0.2-0.1,0.2
	c0,0.1-0.1,0.1-0.2,0.2c-0.1,0.1-0.2,0.1-0.3,0.1C18.7,13.1,18.6,13.1,18.5,13.1z"/>
<path class="st2" d="M7.5,18.5h17"/>
<path class="st2" d="M7.5,23.3h17"/>
<path class="st2" d="M7.5,27.7h17"/>
</svg>
