<svg id="Calque_1" data-name="Calque 1" xmlns="http://www.w3.org/2000/svg" viewBox="0 0 24 24"><defs><style>.cls-1{fill:#0e423e;}.cls-2{fill:#dfe58a;}.cls-3{fill:#fff;}</style></defs><path class="cls-1" d="M20.5,8.44a8.5,8.5,0,0,0-17,0A8.34,8.34,0,0,0,5,13.16l6.59,10.53a.5.5,0,0,0,.92,0l6.59-10.53A8.34,8.34,0,0,0,20.5,8.44Z"/><circle class="cls-2" cx="12" cy="8" r="6"/><path class="cls-1" d="M14.7,6.2v0a2.64,2.64,0,0,0-5.28,0,2.62,2.62,0,0,0,1.2,5,2.53,2.53,0,0,0,.91-.17v1.9h1.06V11a2.61,2.61,0,0,0,.79.12A2.62,2.62,0,0,0,14.7,6.2Z"/><path class="cls-3" d="M15.81,7.37a2.09,2.09,0,0,0,.71-1.58,2.14,2.14,0,1,0-3.76,1.37L12.15,9a.08.08,0,0,0,.1.1L13,8.76a.06.06,0,0,1,.09,0l.37.67a.08.08,0,0,0,.14,0l.52-1.55.31,0h0L15,9.44a.07.07,0,0,0,.13,0l.37-.67a.06.06,0,0,1,.09,0l.72.31s.11,0,.09-.1Z"/><polygon class="cls-1" points="14.51 6.46 15.36 6.88 15.2 5.99 15.88 5.36 14.93 5.23 14.51 4.42 14.08 5.23 13.13 5.36 13.82 5.99 13.65 6.88 14.51 6.46"/></svg>