<?xml version="1.0" encoding="utf-8"?>
<!-- Generator: Adobe Illustrator 24.3.0, SVG Export Plug-In . SVG Version: 6.00 Build 0)  -->
<svg version="1.1" id="Calque_1" xmlns="http://www.w3.org/2000/svg" xmlns:xlink="http://www.w3.org/1999/xlink" x="0px" y="0px"
	 viewBox="0 0 32 32" style="enable-background:new 0 0 32 32;" xml:space="preserve">
<style type="text/css">
	.st0{fill:#0E423E;}
	.st1{fill:#FFFFFF;}
</style>
<path class="st0" d="M32,3.2H0c0,0,0,0,0,0v25.4c0,0,0,0,0,0H32c0,0,0,0,0,0L32,3.2C32,3.3,32,3.2,32,3.2z"/>
<path class="st1" d="M11.8,16.1L2,25.5h19.8L11.8,16.1z"/>
<path class="st1" d="M20.2,12l-9.4,13.5h18.8L20.2,12z"/>
<path class="st1" d="M8.1,14c2.1,0,3.8-1.7,3.8-3.8s-1.7-3.8-3.8-3.8c-2.1,0-3.8,1.7-3.8,3.8S6,14,8.1,14z"/>
</svg>
