<svg id="Calque_1" data-name="Calque 1" xmlns="http://www.w3.org/2000/svg" viewBox="0 0 24 24"><defs><style>.cls-1{fill:#0e423e;}.cls-2{fill:#dfe58a;}.cls-3{fill:#fff;}</style></defs><path class="cls-1" d="M20.5,8.44a8.5,8.5,0,0,0-17,0A8.34,8.34,0,0,0,5,13.16l6.59,10.53a.5.5,0,0,0,.92,0l6.59-10.53A8.34,8.34,0,0,0,20.5,8.44Z"/><circle class="cls-2" cx="12" cy="8" r="6"/><rect class="cls-1" x="7.84" y="4.87" width="8.32" height="6.63" rx="0.01"/><polygon class="cls-3" points="10.92 8.21 8.35 10.65 13.48 10.65 10.92 8.21"/><polygon class="cls-3" points="13.1 7.14 10.66 10.65 15.55 10.65 13.1 7.14"/><ellipse class="cls-3" cx="9.94" cy="6.68" rx="1" ry="0.99"/></svg>