<svg id="Calque_1" data-name="Calque 1" xmlns="http://www.w3.org/2000/svg" viewBox="0 0 24 24"><defs><style>.cls-1{fill:#0e423e;}.cls-2{fill:#dfe58a;}.cls-3{fill:none;stroke:#fff;stroke-miterlimit:10;stroke-width:0.49px;}.cls-4{fill:#fff;}</style></defs><path class="cls-1" d="M20.5,8.44a8.5,8.5,0,0,0-17,0A8.34,8.34,0,0,0,5,13.16l6.59,10.53a.5.5,0,0,0,.92,0l6.59-10.53A8.34,8.34,0,0,0,20.5,8.44Z"/><circle class="cls-2" cx="12" cy="8" r="6"/><path class="cls-1" d="M10.18,4H9.47a1,1,0,0,0-1,1V11a1,1,0,0,0,1,1h6V4Z"/><line class="cls-3" x1="9.93" y1="12" x2="9.93" y2="4"/><rect class="cls-4" x="11.05" y="5.18" width="3.74" height="1.53" rx="0.75"/></svg>