<?xml version="1.0" encoding="utf-8"?>
<!-- Generator: Adobe Illustrator 24.3.0, SVG Export Plug-In . SVG Version: 6.00 Build 0)  -->
<svg version="1.1" id="Calque_1" xmlns="http://www.w3.org/2000/svg" xmlns:xlink="http://www.w3.org/1999/xlink" x="0px" y="0px"
	 viewBox="0 0 32 32" style="enable-background:new 0 0 32 32;" xml:space="preserve">
<style type="text/css">
	.st0{fill:#E0E789;}
	.st1{fill:#0C423E;}
</style>
<path class="st0" d="M16,11.7c0-17.3-18.1-9.2-2.6,1.1C-2,2.4-6.5,20.3,12.8,15.4c-19.3,4.9-6.8,19.3,1.8,2.1
	C6,34.7,26,34.7,17.4,17.4c8.6,17.3,21.1,2.9,1.8-2.1c19.3,4.9,14.8-13-0.6-2.6C34.1,2.4,16-5.6,16,11.7z"/>
<path class="st1" d="M16.1,16.7c1.2,0,2.2-1,2.2-2.2c0-1.2-1-2.2-2.2-2.2s-2.2,1-2.2,2.2C13.9,15.8,14.9,16.7,16.1,16.7z"/>
</svg>
