<svg id="Calque_1" data-name="Calque 1" xmlns="http://www.w3.org/2000/svg" viewBox="0 0 24 24"><defs><style>.cls-1{fill:#0e423e;}.cls-2{fill:#dfe58a;}.cls-3{fill:#fff;}</style></defs><path class="cls-1" d="M20.5,8.44a8.5,8.5,0,0,0-17,0A8.34,8.34,0,0,0,5,13.16l6.59,10.53a.5.5,0,0,0,.92,0l6.59-10.53A8.34,8.34,0,0,0,20.5,8.44Z"/><circle class="cls-2" cx="12" cy="8" r="6"/><path class="cls-1" d="M12,6.9c0-5.61-5.86-3-.84.37-5-3.39-6.47,2.44-.2.83-6.27,1.61-2.21,6.28.58.67-2.79,5.61,3.71,5.61.92,0,2.79,5.61,6.85.94.58-.67,6.27,1.61,4.82-4.22-.2-.83C17.86,3.88,12,1.29,12,6.9Z"/><ellipse class="cls-3" cx="12.03" cy="7.84" rx="0.71" ry="0.7"/></svg>