<?xml version="1.0" encoding="utf-8"?>
<!-- Generator: Adobe Illustrator 24.3.0, SVG Export Plug-In . SVG Version: 6.00 Build 0)  -->
<svg version="1.1" id="Calque_1" xmlns="http://www.w3.org/2000/svg" xmlns:xlink="http://www.w3.org/1999/xlink" x="0px" y="0px"
	 viewBox="0 0 24 24" style="enable-background:new 0 0 24 24;" xml:space="preserve">
<path class="st0" d="M12,1.28l10.89,10.99c0.02,0.03,0.06,0.12,0.06,0.14v10.55l-6.91,0l-0.01-7.52c0-0.86-0.69-1.55-1.54-1.55
	l-5.01,0c-0.41,0-0.8,0.16-1.09,0.46c-0.29,0.29-0.45,0.68-0.45,1.1l0.01,7.52H1.04l0-10.53c0.01-0.04,0.04-0.13,0.05-0.14L12,1.28
	 M12,0c-0.13,0-0.26,0.05-0.35,0.15L0.35,11.54C0.16,11.73,0,12.12,0,12.4v11.1C0,23.77,0.23,24,0.5,24h8c0.28,0,0.5-0.23,0.5-0.5
	l-0.01-8.06c0-0.28,0.22-0.5,0.5-0.5l5.01,0c0,0,0,0,0,0c0.27,0,0.5,0.23,0.5,0.5l0.01,8.07c0,0.28,0.23,0.5,0.5,0.5l7.99,0
	c0.27,0,0.5-0.23,0.5-0.5V12.4c0-0.28-0.16-0.66-0.35-0.86L12.35,0.15C12.26,0.05,12.13,0,12,0L12,0z"/>
</svg>
