<svg xmlns="http://www.w3.org/2000/svg" viewBox="0 0 24 24"><path class="cls-1" d="M23.36,2.41H21.57V.63a.64.64,0,0,0-1.27,0V2.41H18.54A.64.64,0,0,0,17.9,3a.64.64,0,0,0,.64.64H20.3V5.46a.64.64,0,0,0,1.27,0V3.68h1.79A.64.64,0,0,0,24,3,.64.64,0,0,0,23.36,2.41Z"/><path class="cls-1" d="M6.54,4.37a5.11,5.11,0,0,0-2-.08A5.89,5.89,0,0,0,0,10.15a42.72,42.72,0,0,0,.56,5.4.81.81,0,0,0,.57.3l2.2,0H5.52c1.49,0,2.24,0,2.63-.06.55-.07.67-.31.7-.66a.28.28,0,0,1,0-.09c.2-1.64.4-2.83.73-4.41a5.86,5.86,0,0,0,.12-2.56A4.83,4.83,0,0,0,6.54,4.37Zm1.57,6.06h0c-.27,1.28-.61,3.21-.7,4-.47,0-1.58,0-2.77,0H1.85L1.7,12.83a14.13,14.13,0,0,1-.12-3.62A4.64,4.64,0,0,1,3.4,6.32a3.31,3.31,0,0,1,2.47-.63A3.21,3.21,0,0,1,8.21,8.25,4.76,4.76,0,0,1,8.11,10.43Z"/><path class="cls-1" d="M17.44,4.93h0a4.88,4.88,0,0,0-3.32-.65,4.43,4.43,0,0,0-3,2.32,5.69,5.69,0,0,0-.36,4.32,41.08,41.08,0,0,1,.69,4.13.78.78,0,0,0,.32.64c.23.18.23.18,3.92.18h3.72l.23-.22a.71.71,0,0,0,.25-.47s0-.38.2-2.16a15.1,15.1,0,0,0,.11-4A6,6,0,0,0,17.44,4.93Zm1.17,7.91-.15,1.57H15.68c-1.3,0-2.34,0-2.78,0-.08-.73-.4-2.57-.67-3.88A5,5,0,0,1,12,8.87a3.2,3.2,0,0,1,.46-1.64,2.43,2.43,0,0,1,.63-.83,2.92,2.92,0,0,1,1.34-.73,3.41,3.41,0,0,1,1.39.12,4.39,4.39,0,0,1,2.9,3.57A16.5,16.5,0,0,1,18.61,12.84Z"/><path class="cls-1" d="M1,16.92l-.23.21c-.26.23-.25.41-.22.95.18,2.39.33,3.09.87,4A3.81,3.81,0,0,0,4.68,24a3.63,3.63,0,0,0,1.56-.36,4.17,4.17,0,0,0,1.92-2,5.72,5.72,0,0,0,.52-2.73l.07-1.46-.47-.49Zm6.14,1.67A8.32,8.32,0,0,1,7,20.35a3,3,0,0,1-1.43,1.92,2,2,0,0,1-2.37-.43,3.5,3.5,0,0,1-1-2.57c0-.27,0-.53-.07-.74v-.11h5Z"/><path class="cls-1" d="M19.46,17.1c-.25-.2-.25-.2-3.81-.2H12.08l-.51.51,0,1.2c0,.56.07,1.26.1,1.53A4.74,4.74,0,0,0,13,22.87,3.71,3.71,0,0,0,15.62,24a2.84,2.84,0,0,0,.58,0,4,4,0,0,0,2.91-2.39,6.57,6.57,0,0,0,.52-2.45C19.79,17.46,19.79,17.36,19.46,17.1Zm-1.38,2.25a3.51,3.51,0,0,1-1,2.54,2.11,2.11,0,0,1-1.15.58A2,2,0,0,1,14.35,22a3.34,3.34,0,0,1-1.17-2.43c0-.31,0-.79,0-1.05v-.14h5C18.15,18.6,18.12,19,18.08,19.35Z"/></svg>