<svg id="Calque_1" data-name="Calque 1" xmlns="http://www.w3.org/2000/svg" viewBox="0 0 23.84 23.91"><path class="cls-1" d="M11,7v5a.79.79,0,0,0,1.58,0V7A.79.79,0,1,0,11,7Z" transform="translate(0 0.02)"/><path class="cls-1" d="M16.39,15.33l-4-4a.79.79,0,0,0-1.12,1.12l4,4a.79.79,0,1,0,1.12-1.12h.05Z" transform="translate(0 0.02)"/><path class="cls-1" d="M11.88,23.89a12,12,0,0,1-6-1.61A11.87,11.87,0,0,1,.36,15a.77.77,0,0,1,.55-1,.78.78,0,0,1,1,.55A10.37,10.37,0,1,0,17.09,3,10.39,10.39,0,0,0,2.92,6.74a.79.79,0,1,1-1.36-.8,11.95,11.95,0,0,1,20.67,12A11.87,11.87,0,0,1,15,23.48,11.67,11.67,0,0,1,11.88,23.89Z" transform="translate(0 0.02)"/><polygon class="cls-1" points="0.79 9.17 4.74 7.8 0 5.06 0.79 9.17"/></svg>