<svg xmlns="http://www.w3.org/2000/svg" viewBox="0 0 23.88 23.88"><path class="cls-1" d="M11.92,5.28A6.77,6.77,0,1,1,5.15,12a6.76,6.76,0,0,1,6.77-6.76m0-1.7A8.46,8.46,0,1,0,20.37,12a8.46,8.46,0,0,0-8.45-8.46Z" transform="translate(-0.06 -0.06)"/><circle class="cls-1" cx="11.86" cy="11.81" r="2.88"/><path class="cls-1" d="M11.15.88v3.3a.85.85,0,0,0,1.7,0V.88a.85.85,0,0,0-1.7,0Z" transform="translate(-0.06 -0.06)"/><path class="cls-1" d="M23.12,11.15h-3.3a.85.85,0,0,0,0,1.7h3.3a.85.85,0,0,0,0-1.7Z" transform="translate(-0.06 -0.06)"/><path class="cls-1" d="M12.85,23.12v-3.3a.85.85,0,0,0-1.7,0v3.3a.85.85,0,0,0,1.7,0Z" transform="translate(-0.06 -0.06)"/><path class="cls-1" d="M.88,12.85h3.3a.85.85,0,0,0,0-1.7H.88a.85.85,0,0,0,0,1.7Z" transform="translate(-0.06 -0.06)"/></svg>