<?xml version="1.0" encoding="utf-8"?>
<!-- Generator: Adobe Illustrator 24.3.0, SVG Export Plug-In . SVG Version: 6.00 Build 0)  -->
<svg version="1.1" id="Calque_1" xmlns="http://www.w3.org/2000/svg" xmlns:xlink="http://www.w3.org/1999/xlink" x="0px" y="0px"
	 viewBox="0 0 24 24" style="enable-background:new 0 0 24 24;" xml:space="preserve">
<g transform="translate(0.000000,512.000000) scale(0.100000,-0.100000)">
	<path class="st0" d="M53.19,5118.89c-30.77-6.61-53.05-37.85-53.19-74.44c0-12.1,4.95-68.04,6.22-70.01
		c0.64-0.99,1.98-1.69,3.96-1.97c1.7-0.21,22.21-0.35,45.55-0.21c48.88,0.21,45.13-0.28,45.91,6.82c2.55,22.16,5.02,38.27,9.2,59.73
		c2.83,14.56,3.18,22.73,1.41,32.72c-3.89,22.02-18.53,40.67-36.43,46.29C69.88,5119.73,59.35,5120.15,53.19,5118.89z M69.6,5109.25
		c15.56-3.24,28.65-18.43,32.68-38.06c1.84-8.79,1.49-17.24-1.34-31.38c-3.82-19.63-8.84-51.71-8.84-56.99
		c0-0.7-7.99-0.84-38.69-0.7l-38.76,0.21L12.38,5008c-2.69,29.9-2.97,41.3-1.34,50.17c3.32,17.45,12.17,32.65,24.4,41.86
		C46.05,5108.05,58.71,5111.5,69.6,5109.25z"/>
	<path class="st0" d="M168.24,5118.91c-14.36-3.17-26.81-13.65-34.23-28.77c-7.92-16.11-8.98-31.03-4.1-54.87
		c3.39-16.11,6.22-34.68,8.63-56.07c0.35-3.24,0.85-4.36,2.26-5.49c1.77-1.41,2.76-1.41,46.33-1.41h44.49l1.7,1.76
		c0.99,0.91,1.77,2.25,1.77,2.95s1.13,13.93,2.48,29.41c2.76,30.95,3.11,43.12,1.41,52.76c-3.89,21.88-15.77,40.8-32.46,51.64
		C194.84,5118.35,180.05,5121.52,168.24,5118.91z M190.31,5107.73c20.02-6.68,35.08-26.59,39.18-51.71
		c1.2-7.46,0.71-21.25-1.7-48.19l-2.26-25.33l-38.69-0.21c-33.95-0.14-38.76,0-38.76,0.91c0,4.78-4.6,34.19-8.63,55.23
		c-2.69,14.07-2.83,15.76-2.48,23.57c0.5,10.2,1.63,14.7,6.22,24.06c2.83,5.84,4.46,8.23,8.63,12.38
		c5.45,5.56,12.66,9.71,18.88,11.04C175.74,5110.54,184.23,5109.77,190.31,5107.73z"/>
	<path class="st0" d="M8.7,4958.61c-1.63-1.41-1.63-1.76-1.2-8.23c2.12-29.27,3.89-37.5,10.19-47.77
		c12.38-20.26,34.09-27.65,53.69-18.22c9.2,4.43,16.55,12.24,21.86,23.36c4.31,9.15,5.16,13.79,6.01,32.58l0.78,16.46l-1.63,1.69
		l-1.56,1.69H53.55H10.33L8.7,4958.61z M89.62,4943.49c-0.85-16.67-1.06-19.07-2.12-23.08c-3.04-11.82-11.32-22.94-20.3-27.09
		c-12.52-5.84-24.4-3.66-34.59,6.33c-8.84,8.72-12.1,17.1-13.72,35.11c-0.57,6.4-1.2,12.52-1.27,13.65l-0.28,1.9h36.29H89.9
		L89.62,4943.49z"/>
	<path class="st0" d="M142,4958.58l-1.77-1.83l0.42-13.16c0.21-7.25,0.78-15.69,1.13-18.78c1.56-12.03,6.93-23.36,15.14-31.66
		c21.85-22.09,54.74-14.77,68.53,15.27c3.47,7.46,4.6,13.02,6.15,29.27c1.77,19.21,1.77,19.42-0.5,21.18
		c-1.84,1.48-2.48,1.48-44.63,1.48h-42.72L142,4958.58z M222.35,4947.4c0-1.69-0.5-7.81-1.06-13.72
		c-1.77-17.24-5.59-26.45-14.43-34.75c-5.23-4.78-10.18-7.32-16.69-8.44c-19.38-3.31-37.7,15.69-38.97,40.31
		c-0.14,3.66-0.42,9.64-0.64,13.23l-0.28,6.47h36h36.07V4947.4z"/>
</g>
</svg>
