<svg id="Calque_1" data-name="Calque 1" xmlns="http://www.w3.org/2000/svg" viewBox="0 0 24 24"><path class="cls-1" d="M19.52,2a2.44,2.44,0,1,1-2.44,2.44A2.44,2.44,0,0,1,19.52,2h0m0-2A4.48,4.48,0,1,0,24,4.48h0A4.5,4.5,0,0,0,19.52,0Z" transform="translate(-0.04)"/><path class="cls-1" d="M4.48,9.64A2.45,2.45,0,1,1,2,12.08,2.45,2.45,0,0,1,4.48,9.64h0m0-2A4.48,4.48,0,1,0,9,12.08,4.49,4.49,0,0,0,4.48,7.64h0Z" transform="translate(-0.04)"/><path class="cls-1" d="M19.52,17.08a2.44,2.44,0,1,1-2.44,2.44,2.44,2.44,0,0,1,2.44-2.44h0m0-2A4.48,4.48,0,1,0,24,19.56v0A4.49,4.49,0,0,0,19.54,15h0Z" transform="translate(-0.04)"/><rect class="cls-1" x="5.8" y="5.75" width="11.22" height="1.69" transform="translate(-1.81 6.76) rotate(-30.76)"/><rect class="cls-1" x="10.65" y="11.82" width="1.69" height="11.35" transform="translate(-9.48 17.45) rotate(-56.58)"/></svg>