<svg id="Calque_1" data-name="Calque 1" xmlns="http://www.w3.org/2000/svg" viewBox="0 0 24 24"><path class="cls-1" d="M21.65,14.24,24,13.9V10.05l-2.4-.33a9.75,9.75,0,0,0-1.22-2.89l1.47-1.95L19.13,2.16l-2,1.48a9.93,9.93,0,0,0-2.89-1.18L13.93,0H10.08L9.73,2.46A10.07,10.07,0,0,0,6.84,3.65l-2-1.48L2.15,4.89l1.47,2A10.22,10.22,0,0,0,2.39,9.76L0,10.1V14l2.35.33a10,10,0,0,0,1.21,3L2.16,19.12l2.71,2.72,1.86-1.39a9.77,9.77,0,0,0,3,1.26L10.08,24h3.85l.32-2.29a9.85,9.85,0,0,0,3-1.27l1.86,1.39,2.71-2.72-1.41-1.88A10,10,0,0,0,21.65,14.24ZM4.48,12.08A7.53,7.53,0,1,1,12,19.61,7.54,7.54,0,0,1,4.48,12.08Z"/></svg>