<?xml version="1.0" encoding="utf-8"?>
<!-- Generator: Adobe Illustrator 24.3.0, SVG Export Plug-In . SVG Version: 6.00 Build 0)  -->
<svg version="1.1" id="Calque_1" xmlns="http://www.w3.org/2000/svg" xmlns:xlink="http://www.w3.org/1999/xlink" x="0px" y="0px"
	 viewBox="0 0 24 24" style="enable-background:new 0 0 24 24;" xml:space="preserve">
<g>
	<g>
		<path class="st0" d="M12,1.07c2.53,0,4.59,1.99,4.59,4.44S14.53,9.94,12,9.94S7.41,7.95,7.41,5.51S9.47,1.07,12,1.07 M12,0.04
			c-3.11,0-5.62,2.45-5.62,5.47s2.52,5.47,5.62,5.47s5.62-2.45,5.62-5.47S15.11,0.04,12,0.04L12,0.04z"/>
	</g>
	<g>
		<path class="st0" d="M12,13.1c5.64,0,10.29,4.31,10.85,9.8H1.15C1.71,17.4,6.36,13.1,12,13.1 M12,12C5.37,12,0,17.37,0,24h24
			C24,17.37,18.63,12,12,12L12,12z"/>
	</g>
</g>
</svg>
