<svg xmlns="http://www.w3.org/2000/svg" viewBox="0 0 24 24"><path class="cls-1" d="M24,12v.56A12,12,0,0,1,22.92,17h0A11.83,11.83,0,0,1,22,18.58h0A12,12,0,0,1,12,24V22.35h.82a10.13,10.13,0,0,0,3.07-.73,10.35,10.35,0,0,0,3.87-2.73h0a10.43,10.43,0,0,0,1.17-1.62,10.19,10.19,0,0,0,1.42-4.68V12a6.91,6.91,0,0,0,0-.91A10.35,10.35,0,0,0,19.44,4.8h0a10.49,10.49,0,0,0-3.52-2.36,10.13,10.13,0,0,0-3.07-.73H12V0A12,12,0,0,1,24,11.09Z" transform="translate(0 0)"/><path class="cls-1" d="M12,24V22.35c2.31,0,4.77-4.16,4.77-10.35S14.31,1.65,12,1.65V0c3.59,0,6.41,5.27,6.41,12S15.59,24,12,24Z" transform="translate(0 0)"/><rect class="cls-1" x="11.18" y="0.82" width="1.64" height="22.35"/><path class="cls-1" d="M12,24c-3.59,0-6.41-5.27-6.41-12S8.41,0,12,0V1.65C9.69,1.65,7.23,5.81,7.23,12S9.69,22.35,12,22.35Z" transform="translate(0 0)"/><path class="cls-1" d="M12,0V1.65h-.82a10.13,10.13,0,0,0-3.07.73,10.48,10.48,0,0,0-3.46,2.3A10,10,0,0,0,3.34,6.33a10.26,10.26,0,0,0-1.66,4.76,6.91,6.91,0,0,0,0,.91v.56a10.32,10.32,0,0,0,2.64,6.35,10.45,10.45,0,0,0,6.89,3.41H12V24A12,12,0,0,1,2,18.65,11.4,11.4,0,0,1,1.11,17,12,12,0,0,1,0,12.56V11.09A12.06,12.06,0,0,1,1.29,6.58,12.3,12.3,0,0,1,2.28,5,12,12,0,0,1,12,0Z" transform="translate(0 0)"/><path class="cls-2" d="M22.93,17.8" transform="translate(0 0)"/><path class="cls-1" d="M22.75,6.67l-2-.27c-1-.13-2.07-.23-3.11-.32L15.86,6c-1-.06-2-.1-3-.11H11.18q-1.52,0-3,.09L6.41,6c-1,.07-2,.17-3.07.29-.68.07-1.36.16-2,.25A12.66,12.66,0,0,1,2.28,5c.79-.1,1.58-.19,2.37-.26S6.18,4.58,7,4.53q.92-.06,1.83-.09,1.2,0,2.4-.06h1.64c.8,0,1.61,0,2.41.07.61,0,1.22.06,1.84.11h0a23.08,23.08,0,0,1,2.34.2h0c.79.08,1.58.17,2.37.28A11.36,11.36,0,0,1,22.75,6.67Z" transform="translate(0 0)"/><path class="cls-1" d="M24,12v.56H0V11.09H24Z" transform="translate(0 0)"/><path class="cls-1" d="M22.92,17A11.83,11.83,0,0,1,22,18.58h0c-.76.11-1.52.2-2.27.28h0c-.85.09-1.7.16-2.55.22-.61.05-1.21.08-1.81.11-.86,0-1.72.07-2.58.08H11.18c-.86,0-1.71,0-2.57-.07q-.9,0-1.8-.09h0L4.29,18.9c-.76-.08-1.52-.16-2.27-.26A11.41,11.41,0,0,1,1.11,17c.66.1,1.33.18,2,.26,1.07.13,2.14.23,3.21.31.58,0,1.15.08,1.73.1,1,.06,2.09.09,3.14.1h1.64c1,0,2.1-.05,3.15-.11.58,0,1.15-.07,1.73-.12,1.08-.08,2.16-.2,3.23-.33C21.6,17.16,22.26,17.07,22.92,17Z" transform="translate(0 0)"/></svg>