<svg width="30" height="28" viewBox="0 0 30 28" fill="none" xmlns="http://www.w3.org/2000/svg">
<path d="M14.0589 1.19115C14.5956 0.714034 15.4045 0.714034 15.9412 1.19115L28.6912 12.5245C29.276 13.0443 29.3287 13.9397 28.8089 14.5245C28.2891 15.1093 27.3937 15.1619 26.8089 14.6421L26.3334 14.2195V24.9166C26.3334 26.4815 25.0649 27.75 23.5001 27.75H6.50006C4.93525 27.75 3.66672 26.4815 3.66672 24.9166V14.2195L3.19124 14.6421C2.60646 15.1619 1.71103 15.1093 1.19123 14.5245C0.671426 13.9397 0.724098 13.0443 1.30887 12.5245L14.0589 1.19115ZM6.50006 11.701V24.9166H10.7501V17.8333C10.7501 17.0509 11.3843 16.4166 12.1667 16.4166H17.8334C18.6158 16.4166 19.2501 17.0509 19.2501 17.8333V24.9166H23.5001V11.701L15.0001 4.14542L6.50006 11.701ZM16.4167 24.9166V19.25H13.5834V24.9166H16.4167Z" fill="white"/>
</svg>
