<?xml version="1.0" encoding="utf-8"?>
<!-- Generator: Adobe Illustrator 24.3.0, SVG Export Plug-In . SVG Version: 6.00 Build 0)  -->
<svg version="1.1" id="Calque_1" xmlns="http://www.w3.org/2000/svg" xmlns:xlink="http://www.w3.org/1999/xlink" x="0px" y="0px"
	 viewBox="0 0 512 512" style="enable-background:new 0 0 512 512;" xml:space="preserve">
<style type="text/css">
	.st0{stroke:#000000;stroke-width:5;stroke-miterlimit:10;}
	.st1{stroke:#000000;stroke-width:0.75;stroke-miterlimit:10;}
</style>
<g>
	<g transform="translate(0.000000,512.000000) scale(0.100000,-0.100000)">
		<path class="st0" d="M2161.2,4567.2c-800.3-131.3-1414.6-749-1531.1-1539c-25.1-172.4-17.1-479.5,17.1-639.4
			c212.4-984.2,1154.3-1607.5,2147.6-1418c264.9,50.2,536.6,175.8,771.8,359.6l69.6,53.7l472.7-473.8
			c260.3-260.3,486.4-480.7,503.5-489.8c113-59.4,223.8,51.4,164.4,164.4c-9.1,17.1-229.5,243.2-489.8,503.5l-473.8,472.7l53.7,69.6
			c341.4,438.4,467,973.9,355.1,1509.4c-146.1,702.2-702.2,1255.9-1414.6,1410C2667,4580.9,2300.5,4590.1,2161.2,4567.2z
			 M2762.9,4309.2c199.8-42.2,371.1-114.2,541.2-226.1c355.1-236.3,593.7-586.8,685-1007c25.1-115.3,34.3-390.5,17.1-517.2
			c-95.9-715.9-651.9-1271.9-1367.8-1367.8c-126.7-17.1-401.9-8-517.2,17.1c-626.8,135.9-1100.6,608.5-1235.3,1231.9
			c-33.1,155.3-36.5,464.7-5.7,616.5c129,639.4,629.1,1138.3,1258.2,1257c143.9,27.4,149.6,28.5,336.8,24
			C2597.3,4334.3,2686.4,4326.3,2762.9,4309.2z"/>
	</g>
	<path class="st1" d="M257.3,114.7c-47.8,39.3-76.7,75.6-88,110.5c-2.8,8.8-4.9,20.9-5.1,29c-0.4,25.1,10.3,48.7,29.1,63.8
		c7,5.7,16.3,10.2,24.9,12.2l3,0.7l1.3,7.5c2.8,16.2,7.4,30.6,12,38.1c1.9,2.9,3.6,4,5.7,3.6c1.8-0.3,2.2-0.7,3.2-2.3
		c0.9-1.6,0.6-3.2-1.1-6.1c-2.7-4.3-5.4-11.6-7.8-20.5c-1.4-5.3-4-18.1-3.8-18.8c0.1-0.2,0.8-0.4,1.7-0.4c2.4,0.1,9.3-0.5,13-1.2
		c12.8-2.3,26.9-8.7,38.7-17.7c16.3-12.3,25-26.3,27.5-44.3c2.6-18.5-1.6-38.2-14-65.8c-8.7-19.4-12.3-30.1-15-44.9
		c-2.9-15.5-3.2-31.4-1-49.4c0.7-5.7,0.4-6.7-2.1-8c-2.3-1.2-3.3-0.7-10.4,4.7C265.8,107.9,260.4,112.1,257.3,114.7z M271.6,117.4
		c-1.5,24.7,1.1,45.4,8.5,66.9c1.8,5.2,3.8,9.9,9.6,23.3c13.7,31.4,16.8,52.2,10.4,70.5c-4.3,12.1-13.2,22.6-26.7,31.2
		c-14.3,9.1-27,13.2-41.1,13.1c-1.6,0-2.9,0-3-0.1c-0.5-0.6-1.6-18.3-1.8-26.9c-0.5-37.6,6.3-71.5,20.1-101.4
		c1.7-3.7,3.2-7.1,3.3-7.6c0.3-1.5-0.8-3.6-2.3-4.5c-2.8-1.6-5.4-0.3-7.4,3.8c-13,26.5-20.6,58-22.3,92.4c-0.6,13-0.3,29.5,0.7,39.7
		l0.3,2.9l-1.5-0.2c-2-0.2-9.6-3.4-13-5.4c-17.6-10.4-29.8-30.5-31.8-52.4c-0.8-8.5,0.3-20.5,2.7-29.4c6.7-25.1,23.3-51.2,50.2-78.7
		c11.8-12.1,28.1-26.6,39.9-35.7l5-3.8L271.6,117.4z"/>
</g>
</svg>
