<?xml version="1.0" encoding="utf-8"?>
<!-- Generator: Adobe Illustrator 24.3.0, SVG Export Plug-In . SVG Version: 6.00 Build 0)  -->
<svg version="1.1" id="Calque_1" xmlns="http://www.w3.org/2000/svg" xmlns:xlink="http://www.w3.org/1999/xlink" x="0px" y="0px"
	 viewBox="0 0 891 791.4" style="enable-background:new 0 0 891 791.4;" xml:space="preserve">
<style type="text/css">
	.st0{stroke:#000000;stroke-width:10;stroke-miterlimit:10;}
	.st1{stroke:#000000;stroke-miterlimit:10;}
</style>
<g>
	<g transform="translate(0.000000,512.000000) scale(0.100000,-0.100000)">
		<path class="st0" d="M4455,4192.9c-480-45-876-227-1199-550c-447-447-644-1089-516-1675c50-224,126-426,240-632
			c67-121,1386-2125,1428-2170c104-111,260-111,364,0c25,27,1180,1769,1340,2023c252,398,380,816,364,1185c-13,294-71,527-195,773
			c-98,195-205,344-357,496c-285,284-642,467-1039,531C4790,4188.9,4533,4200.9,4455,4192.9z M4850,3952.9c530-77,1024-447,1246-932
			c112-244,157-446,157-707c0-123-4-172-26-275c-50-239-132-445-272-678c-124-208-1351-2057-1365-2057s-1241,1849-1365,2057
			c-131,219-208,403-260,623c-81,343-42,687,119,1037c227,496,740,871,1281,937C4543,3979.9,4676,3978.9,4850,3952.9z"/>
	</g>
	<path class="st1" d="M477.8,177.5c-47.8,39.3-76.7,75.6-88,110.5c-2.8,8.8-4.9,20.9-5.1,29c-0.4,25.1,10.3,48.7,29.1,63.8
		c7,5.7,16.3,10.2,24.9,12.2l3,0.7l1.3,7.5c2.8,16.2,7.4,30.6,12,38.1c1.9,2.9,3.6,4,5.7,3.6c1.8-0.3,2.2-0.7,3.2-2.3
		c0.9-1.6,0.6-3.2-1.1-6.1c-2.7-4.3-5.4-11.6-7.8-20.5c-1.4-5.3-4-18.1-3.8-18.8c0.1-0.2,0.8-0.4,1.7-0.4c2.4,0.1,9.3-0.5,13-1.2
		c12.8-2.3,26.9-8.7,38.7-17.7c16.3-12.3,25-26.3,27.5-44.3c2.6-18.5-1.6-38.2-14-65.8c-8.7-19.4-12.3-30.1-15-44.9
		c-2.9-15.5-3.2-31.4-1-49.4c0.7-5.7,0.4-6.7-2.1-8c-2.3-1.2-3.3-0.7-10.4,4.7C486.3,170.6,480.9,174.9,477.8,177.5z M492.1,180.2
		c-1.5,24.7,1.1,45.4,8.5,66.9c1.8,5.2,3.8,9.9,9.6,23.3c13.7,31.4,16.8,52.2,10.4,70.5c-4.3,12.1-13.2,22.6-26.7,31.2
		c-14.3,9.1-27,13.2-41.1,13.1c-1.6,0-2.9,0-3-0.1c-0.5-0.6-1.6-18.3-1.8-26.9c-0.5-37.6,6.3-71.5,20.1-101.4
		c1.7-3.7,3.2-7.1,3.3-7.6c0.3-1.5-0.8-3.6-2.3-4.5c-2.8-1.6-5.4-0.3-7.4,3.8c-13,26.5-20.6,58-22.3,92.4c-0.6,13-0.3,29.5,0.7,39.7
		l0.3,2.9l-1.5-0.2c-2-0.2-9.6-3.4-13-5.4c-17.6-10.4-29.8-30.5-31.8-52.4c-0.8-8.5,0.3-20.5,2.7-29.4c6.7-25.1,23.3-51.2,50.2-78.7
		c11.8-12.1,28.1-26.6,39.9-35.7l5-3.8L492.1,180.2z"/>
</g>
</svg>
