<?xml version="1.0" encoding="utf-8"?>
<!-- Generator: Adobe Illustrator 24.3.0, SVG Export Plug-In . SVG Version: 6.00 Build 0)  -->
<svg version="1.1" id="Calque_1" xmlns="http://www.w3.org/2000/svg" xmlns:xlink="http://www.w3.org/1999/xlink" x="0px" y="0px"
	 viewBox="0 0 512 512" style="enable-background:new 0 0 512 512;" xml:space="preserve">
<style type="text/css">
	.st0{stroke:#000000;stroke-width:10;stroke-miterlimit:10;}
</style>
<g transform="translate(0.000000,512.000000) scale(0.100000,-0.100000)">
	<path class="st0" d="M1601.2,4414c-435-94-750-538-752-1058c0-172,70-967,88-995c9-14,28-24,56-28c24-3,314-5,644-3
		c691,3,638-4,649,97c36,315,71,544,130,849c40,207,45,323,20,465c-55,313-262,578-515,658C1837.2,4426,1688.2,4432,1601.2,4414z
		 M1833.2,4277c220-46,405-262,462-541c26-125,21-245-19-446c-54-279-125-735-125-810c0-10-113-12-547-10l-548,3l-32,365
		c-38,425-42,587-19,713c47,248,172,464,345,595C1500.2,4260,1679.2,4309,1833.2,4277z"/>
	<path class="st0" d="M3256.2,4413.5c-203-45-379-194-484-409c-112-229-127-441-58-780c48-229,88-493,122-797c5-46,12-62,32-78
		c25-20,39-20,655-20h629l24,25c14,13,25,32,25,42s16,198,35,418c39,440,44,613,20,750c-55,311-223,580-459,734
		C3632.2,4405.5,3423.2,4450.5,3256.2,4413.5z M3568.2,4254.5c283-95,496-378,554-735c17-106,10-302-24-685l-32-360l-547-3
		c-480-2-548,0-548,13c0,68-65,486-122,785c-38,200-40,224-35,335c7,145,23,209,88,342c40,83,63,117,122,176c77,79,179,138,267,157
		C3362.2,4294.5,3482.2,4283.5,3568.2,4254.5z"/>
	<path class="st0" d="M972.2,2136c-23-20-23-25-17-117c30-416,55-533,144-679c175-288,482-393,759-259c130,63,234,174,309,332
		c61,130,73,196,85,463l11,234l-23,24l-22,24h-612h-611L972.2,2136z M2116.2,1921c-12-237-15-271-30-328c-43-168-160-326-287-385
		c-177-83-345-52-489,90c-125,124-171,243-194,499c-8,91-17,178-18,194l-4,27h513h513L2116.2,1921z"/>
	<path class="st0" d="M2891.2,2133.9l-25-26l6-187c3-103,11-223,16-267c22-171,98-332,214-450c309-314,774-210,969,217
		c49,106,65,185,87,416c25,273,25,276-7,301c-26,21-35,21-631,21h-604L2891.2,2133.9z M4030.7,1975.4c0-24-7-111-15-195
		c-25-245-79-376-204-494c-74-68-144-104-236-120c-274-47-533,223-551,573c-2,52-6,137-9,188l-4,92h509h510V1975.4z"/>
</g>
</svg>
