<?xml version="1.0" encoding="utf-8"?>
<!-- Generator: Adobe Illustrator 24.3.0, SVG Export Plug-In . SVG Version: 6.00 Build 0)  -->
<svg version="1.1" id="Calque_1" xmlns="http://www.w3.org/2000/svg" xmlns:xlink="http://www.w3.org/1999/xlink" x="0px" y="0px"
	 viewBox="0 0 948 728" style="enable-background:new 0 0 948 728;" xml:space="preserve">
<style type="text/css">
	.st0{stroke:#000000;stroke-width:5;stroke-miterlimit:10;}
</style>
<g transform="translate(0.000000,512.000000) scale(0.100000,-0.100000)">
	<path class="st0" d="M4285,4103.9c-143-20-258-56-392-124c-445-224-706-724-655-1250c31-313,134-560,332-796
		c112-134,285-262,446-329c536-224,1123-36,1461,469c267,398,305,946,96,1369C5337,3920.9,4832,4179.9,4285,4103.9z M4698,3712.9
		c227-57,432-221,536-431c73-148,98-261,97-438c-2-276-101-525-281-706c-84-85-136-123-236-173c-215-106-473-106-688,0
		c-100,50-152,88-236,173c-378,381-377,1060,2,1396C4103,3719.9,4403,3786.9,4698,3712.9z"/>
	<path class="st0" d="M4270,1227.9c-764-32-1367-269-1727-679c-277-315-426-713-452-1206c-12-225,6-280,104-325
		c39-18,123-19,2275-19s2236,1,2275,19c98,45,116,100,104,325c-58,1100-744,1753-1964,1870C4683,1231.9,4481,1236.9,4270,1227.9z
		 M4790,848.9c713-64,1173-287,1442-699c122-187,213-460,234-698l7-83H4470H2467l7,82c4,46,18,133,31,193c100,464,354,792,769,991
		c231,111,483,175,826,209C4256,859.9,4637,861.9,4790,848.9z"/>
</g>
</svg>
